<svg width="33" height="33" viewBox="0 0 33 33" fill="none" xmlns="http://www.w3.org/2000/svg">
<path d="M19.9635 16.1226C19.9635 17.8269 18.5819 19.2085 16.8776 19.2085C15.1732 19.2085 13.7916 17.8269 13.7916 16.1226C13.7916 14.4182 15.1732 13.0366 16.8776 13.0366C18.5819 13.0366 19.9635 14.4182 19.9635 16.1226Z" fill="white"/>
<path d="M24.0947 10.6627C23.9464 10.2607 23.7097 9.89683 23.4022 9.59818C23.1035 9.29067 22.7399 9.05401 22.3377 8.90566C22.0115 8.77897 21.5214 8.62816 20.6188 8.58708C19.6424 8.54255 19.3497 8.53296 16.8778 8.53296C14.4056 8.53296 14.1129 8.54231 13.1367 8.58683C12.2341 8.62816 11.7438 8.77897 11.4178 8.90566C11.0156 9.05401 10.6518 9.29067 10.3534 9.59818C10.0459 9.89683 9.8092 10.2604 9.66061 10.6627C9.53391 10.9889 9.38311 11.4792 9.34202 12.3818C9.2975 13.3579 9.2879 13.6507 9.2879 16.1228C9.2879 18.5947 9.2975 18.8875 9.34202 19.8639C9.38311 20.7665 9.53391 21.2565 9.66061 21.5828C9.8092 21.985 10.0456 22.3486 10.3531 22.6472C10.6518 22.9547 11.0154 23.1914 11.4176 23.3398C11.7438 23.4667 12.2341 23.6175 13.1367 23.6586C14.1129 23.7031 14.4054 23.7125 16.8775 23.7125C19.3499 23.7125 19.6427 23.7031 20.6186 23.6586C21.5212 23.6175 22.0115 23.4667 22.3377 23.3398C23.1451 23.0283 23.7832 22.3902 24.0947 21.5828C24.2214 21.2565 24.3722 20.7665 24.4135 19.8639C24.4581 18.8875 24.4674 18.5947 24.4674 16.1228C24.4674 13.6507 24.4581 13.3579 24.4135 12.3818C24.3724 11.4792 24.2216 10.9889 24.0947 10.6627ZM16.8778 20.8765C14.2521 20.8765 12.1236 18.7482 12.1236 16.1226C12.1236 13.4969 14.2521 11.3687 16.8778 11.3687C19.5032 11.3687 21.6317 13.4969 21.6317 16.1226C21.6317 18.7482 19.5032 20.8765 16.8778 20.8765ZM21.8196 12.2917C21.2061 12.2917 20.7086 11.7943 20.7086 11.1808C20.7086 10.5672 21.2061 10.0698 21.8196 10.0698C22.4332 10.0698 22.9306 10.5672 22.9306 11.1808C22.9303 11.7943 22.4332 12.2917 21.8196 12.2917Z" fill="white"/>
<path d="M16.8776 0C7.97475 0 0.755127 7.21963 0.755127 16.1224C0.755127 25.0253 7.97475 32.2449 16.8776 32.2449C25.7804 32.2449 33 25.0253 33 16.1224C33 7.21963 25.7804 0 16.8776 0ZM26.0795 19.9393C26.0348 20.9248 25.8781 21.5976 25.6493 22.1866C25.1683 23.4301 24.1853 24.4132 22.9417 24.8941C22.353 25.1229 21.6799 25.2794 20.6947 25.3244C19.7074 25.3694 19.392 25.3803 16.8778 25.3803C14.3634 25.3803 14.0482 25.3694 13.0607 25.3244C12.0755 25.2794 11.4024 25.1229 10.8137 24.8941C10.1957 24.6617 9.6363 24.2973 9.1738 23.8262C8.70294 23.364 8.3386 22.8043 8.10612 22.1866C7.87734 21.5979 7.72063 20.9248 7.67585 19.9395C7.63034 18.952 7.61976 18.6367 7.61976 16.1224C7.61976 13.6082 7.63034 13.2929 7.67561 12.3056C7.72038 11.3201 7.87684 10.6473 8.10563 10.0583C8.33811 9.4406 8.7027 8.88093 9.1738 8.41868C9.63605 7.94757 10.1957 7.58323 10.8135 7.35075C11.4024 7.12196 12.0752 6.9655 13.0607 6.92048C14.048 6.87546 14.3634 6.86464 16.8776 6.86464C19.3918 6.86464 19.7072 6.87546 20.6944 6.92073C21.6799 6.9655 22.3528 7.12196 22.9417 7.3505C23.5594 7.58298 24.1191 7.94757 24.5816 8.41868C25.0525 8.88117 25.417 9.4406 25.6493 10.0583C25.8783 10.6473 26.0348 11.3201 26.0798 12.3056C26.1248 13.2929 26.1354 13.6082 26.1354 16.1224C26.1354 18.6367 26.1248 18.952 26.0795 19.9393Z" fill="white"/>
</svg>
