<svg width="33" height="33" viewBox="0 0 33 33" fill="none" xmlns="http://www.w3.org/2000/svg">
<path fill-rule="evenodd" clip-rule="evenodd" d="M16.1224 32.2449C25.0266 32.2449 32.2449 25.0266 32.2449 16.1224C32.2449 7.21827 25.0266 0 16.1224 0C7.21827 0 0 7.21827 0 16.1224C0 25.0266 7.21827 32.2449 16.1224 32.2449ZM22.9321 18.969C22.7545 18.8008 22.5769 18.6326 22.4018 18.4616C21.8053 17.8798 21.7672 17.5422 22.2473 16.8724C22.5255 16.4819 22.8153 16.0998 23.105 15.7177C23.3596 15.382 23.6141 15.0464 23.8606 14.7054C23.8792 14.6796 23.8978 14.6538 23.9165 14.628C24.3913 13.9708 24.8676 13.3117 25.1169 12.5267C25.2814 12.0067 25.1355 11.7776 24.603 11.6868C24.5122 11.6713 24.4174 11.6699 24.3237 11.6699L21.1636 11.6671C20.7742 11.6596 20.5587 11.8297 20.4213 12.1754C20.236 12.6413 20.0447 13.1075 19.8223 13.5565C19.321 14.5775 18.7599 15.5636 17.9738 16.398C17.9625 16.4098 17.9512 16.4219 17.9398 16.4341C17.7745 16.6106 17.5896 16.8081 17.318 16.7194C16.9553 16.5861 16.8491 15.9886 16.8548 15.7872L16.852 12.14C16.7812 11.6199 16.6664 11.3877 16.1495 11.2856H12.866C12.4282 11.2856 12.2086 11.4558 11.9751 11.7292C11.8406 11.8877 11.7993 11.991 12.0769 12.0436C12.6211 12.1468 12.9283 12.4999 13.0091 13.0452C13.1408 13.919 13.131 14.7944 13.0559 15.6713C13.0332 15.9262 12.9892 16.1825 12.8886 16.4205C12.7301 16.7958 12.4736 16.8723 12.1366 16.6416C11.8321 16.4332 11.6182 16.1372 11.4085 15.8411C10.6209 14.7292 9.99344 13.5296 9.48066 12.2688C9.33192 11.9048 9.0769 11.6839 8.69169 11.6783C7.74278 11.6625 6.79512 11.6612 5.84733 11.6796C5.27655 11.6894 5.10659 11.9671 5.339 12.4844C6.37151 14.7805 7.52033 17.0139 9.02049 19.0465C9.79097 20.0904 10.6762 21.0124 11.8177 21.6656C13.1125 22.4064 14.5064 22.6286 15.975 22.5594C16.6622 22.5281 16.869 22.3482 16.9001 21.6641C16.9228 21.1952 16.9751 20.7293 17.206 20.3086C17.4326 19.8949 17.7769 19.8161 18.1735 20.0736C18.3718 20.2023 18.5377 20.3652 18.6963 20.5383C18.8214 20.6753 18.945 20.8136 19.0686 20.9518C19.3271 21.2411 19.5857 21.5304 19.8578 21.8076C20.3605 22.32 20.9582 22.6216 21.7076 22.5594L24.6128 22.5607C25.0802 22.5296 25.3238 21.956 25.0549 21.4348C24.865 21.0681 24.6169 20.7421 24.3548 20.4261C23.9185 19.9033 23.4255 19.4364 22.9321 18.969Z" fill="white"/>
</svg>
